# xmcd
#
# Track frame offsets:
# 150
# 3006
# 34001
# 51333
# 73296
# 90343
# 114476
# 139170
# 162885
# 178744
# 179497
# 199492
# 202374
# 222023
# 239514
#
# Disc length: 3739 seconds
#
# Revision: 1
# Processed by: cddbd v1.5.2PL0 Copyright (c) Steve Scherf et al.
# Submitted via: CedeCatalogueitor 2.6.0.6 http://personales.ya.com/cdcatalogueitor
#
DISCID=df0e990f
DTITLE=Peepshow - Killy Y Los Hombres Estrella
DYEAR=1900
DGENRE=
TTITLE0=*
TTITLE1=Koprotnik
TTITLE2=Vengata Amarilla
TTITLE3=Sin Título
TTITLE4=Un Punto
TTITLE5=RGB
TTITLE6=El Fantasma De Shiubari
TTITLE7=Ciudad Invisible
TTITLE8=Killy Y Los Hombres Estrella
TTITLE9=**
TTITLE10=Héroes
TTITLE11=***
TTITLE12=Final Perfecto
TTITLE13=Sinfonía 3000
TTITLE14=
EXTD=
EXTT0=
EXTT1=
EXTT2=
EXTT3=
EXTT4=
EXTT5=
EXTT6=
EXTT7=
EXTT8=
EXTT9=
EXTT10=
EXTT11=
EXTT12=
EXTT13=
EXTT14=
PLAYORDER=
